<svg xmlns="http://www.w3.org/2000/svg" width="750" height="800" viewBox="0 0 750 800">
<g>
<path d="M 56.47,567.05 L 56.52,566.96 L 56.52,566.96 M 118.00,566.00 L 117.97,566.00 L 118.00,562.58 M 651.18,566.00 L 660.06,566.02 L 664.39,566.03 L 672.45,566.07 L 676.36,566.09 L 683.47,566.15 L 685.19,566.16 L 688.41,566.20 L 689.99,566.22 L 692.94,566.26 L 694.38,566.28 L 697.03,566.32 L 698.32,566.34 L 700.66,566.39 L 701.79,566.41 L 703.80,566.46 L 704.77,566.49 L 706.44,566.54 L 707.23,566.57 L 708.55,566.63 L 709.16,566.66 L 710.10,566.72 L 710.52,566.75 L 711.07,566.81 L 711.44,566.91 L 711.07,566.81 L 710.52,566.75 L 710.10,566.72 L 709.16,566.66 L 708.55,566.63 L 707.23,566.57 L 706.44,566.54 L 704.77,566.49 L 703.80,566.46 L 701.79,566.41 L 700.66,566.39 L 698.31,566.34 L 697.02,566.32 L 694.37,566.28 L 692.93,566.26 L 689.98,566.22 L 688.41,566.20 L 685.18,566.16 L 683.46,566.15 L 676.35,566.09 L 672.44,566.07 L 664.38,566.03 L 660.04,566.02 L 651.16,566.00 M 503.81,565.50 L 503.93,519.33 L 503.91,565.50 L 506.96,565.81 L 510.00,566.13 L 506.91,565.81 M 431.50,566.00 L 431.50,566.09 L 430.46,566.00 M 550.16,264.00 L 548.36,266.07 L 547.49,267.07 L 545.95,268.88 L 545.22,269.75 L 543.98,271.25 L 543.41,271.96 L 542.53,273.09 L 542.14,273.61 L 541.66,274.33 L 541.43,274.88 L 541.47,274.95 L 541.94,275.07 L 542.24,275.13 L 543.20,275.25 L 543.74,275.31 L 545.12,275.42 L 545.86,275.47 L 547.61,275.57 L 548.53,275.61 L 550.60,275.70 L 551.67,275.74 L 554.00,275.81 L 561.70,275.94 L 564.41,275.95 L 569.38,276.01 L 570.56,276.03 L 572.75,276.06 L 573.81,276.08 L 575.70,276.12 L 576.61,276.14 L 578.16,276.18 L 578.88,276.20 L 580.03,276.24 L 580.55,276.26 L 581.24,276.30 L 581.70,276.36 L 581.71,276.37 L 581.72,277.14 L 581.73,277.65 L 581.75,279.37 L 581.76,280.35 L 581.78,282.98 L 581.79,284.40 L 581.81,287.89 L 581.82,289.73 L 581.84,294.03 L 581.85,296.27 L 581.86,301.32 L 581.87,303.93 L 581.89,309.69 L 581.90,312.65 L 581.91,319.06 L 581.92,322.35 L 581.93,329.37 L 581.94,332.95 L 581.95,340.53 L 581.96,344.38 L 581.97,352.47 L 581.98,356.58 L 581.99,365.13 L 582.00,369.45 L 582.00,378.41 L 582.01,382.94 L 582.02,392.25 L 582.02,396.95 L 582.03,406.58 L 582.03,421.32 L 582.09,566.00 L 582.04,566.00 L 582.05,510.25 L 582.05,499.01 L 582.05,491.83 L 582.05,488.45 L 582.05,481.83 L 582.05,478.79 L 582.05,472.91 L 582.05,470.29 L 582.05,465.29 L 582.05,463.17 L 582.04,461.12 L 582.04,460.21 L 582.04,458.44 L 582.04,457.68 L 582.04,456.22 L 582.04,455.61 L 582.04,454.48 L 582.04,454.04 L 582.03,453.25 L 582.03,452.99 L 582.03,452.57 L 582.03,452.50 L 581.93,451.85 L 581.68,451.50 L 581.37,451.36 L 580.61,451.11 L 579.96,451.02 L 578.43,450.85 L 577.29,450.80 L 576.07,450.75 L 575.35,450.73 L 573.84,450.69 L 572.96,450.68 L 571.11,450.66 L 570.04,450.66 L 567.83,450.65 L 566.57,450.65 L 563.95,450.66 L 562.47,450.66 L 559.42,450.68 L 557.72,450.69 L 554.19,450.71 L 552.24,450.73 L 548.21,450.76 L 546.00,450.77 L 510.01,451.05 L 510.01,442.02 L 510.01,428.92 L 510.01,402.04 L 510.01,395.39 L 510.00,382.41 L 510.00,363.82 L 510.00,359.52 L 510.00,351.53 L 510.00,347.62 L 510.01,340.37 L 510.01,336.84 L 510.02,330.30 L 510.03,327.12 L 510.05,321.27 L 510.06,318.43 L 510.08,313.23 L 510.09,310.71 L 510.12,306.13 L 510.14,303.91 L 510.17,299.92 L 510.19,298.00 L 510.24,294.56 L 510.26,292.91 L 510.32,290.00 L 510.34,288.60 L 510.40,286.18 L 510.44,285.03 L 510.51,283.07 L 510.54,282.14 L 510.62,280.60 L 510.66,279.89 L 510.75,278.75 L 510.80,278.22 L 510.90,277.44 L 510.95,277.10 L 511.06,276.65 L 511.24,276.32 L 511.33,276.26 L 511.73,276.15 L 511.97,276.10 L 512.65,275.99 L 513.40,275.89 L 515.57,275.72 L 516.75,275.65 L 519.57,275.53 L 524.22,275.45 L 525.72,275.44 L 528.30,275.40 L 529.52,275.37 L 531.55,275.29 L 532.49,275.25 L 533.98,275.12 L 534.66,275.05 L 535.64,274.88 L 536.06,274.79 L 536.53,274.57 L 536.60,274.51 L 536.91,274.68 L 537.07,274.77 L 537.33,274.93 L 537.36,274.96 L 538.50,275.72 L 539.32,275.97 L 539.69,275.97 L 540.39,275.87 L 540.62,275.70 L 541.00,275.26 L 541.00,274.91 L 541.34,274.33 L 541.89,273.59 L 542.32,273.06 L 543.26,271.91 L 543.86,271.20 L 545.14,269.68 L 545.90,268.81 L 547.48,266.99 L 548.37,265.99 L 550.20,263.92 L 551.20,262.80 L 555.07,258.51 L 551.15,262.89 M 233.02,526.02 L 197.04,526.09 L 196.50,565.50 L 196.76,507.25 L 197.02,449.00 L 269.00,449.00 L 269.00,525.96 M 354.00,566.00 L 353.95,566.00 L 354.00,559.51 M 274.00,566.00 L 273.97,566.00 L 274.00,562.69 M 374.84,337.34 L 373.04,339.20 L 369.71,342.66 L 368.10,344.33 L 365.22,347.34 L 363.85,348.78 L 361.50,351.25 L 360.40,352.41 L 358.67,354.26 L 357.88,355.09 L 356.85,356.24 L 356.63,356.47 L 356.36,356.80 L 356.17,357.05 L 356.14,357.13 L 356.71,357.26 L 357.09,357.33 L 358.44,357.45 L 359.21,357.51 L 361.30,357.61 L 362.43,357.66 L 365.23,357.75 L 366.71,357.79 L 370.17,357.85 L 371.98,357.89 L 376.06,357.93 L 378.17,357.96 L 382.83,357.98 L 390.44,358.00 L 425.04,358.00 L 424.99,461.25 L 424.99,468.35 L 424.98,482.01 L 424.98,485.36 L 424.98,491.90 L 424.97,495.13 L 424.97,501.40 L 424.97,504.49 L 424.97,510.45 L 424.97,513.39 L 424.97,519.00 L 424.97,521.76 L 424.96,527.00 L 424.96,529.57 L 424.96,534.39 L 424.96,536.75 L 424.96,541.12 L 424.96,543.25 L 424.96,547.14 L 424.96,549.02 L 424.96,552.38 L 424.96,554.00 L 424.96,556.81 L 424.96,558.14 L 424.96,560.37 L 424.96,561.40 L 424.96,562.99 L 424.96,563.71 L 424.97,564.64 L 424.97,565.25 L 424.97,565.35 L 425.24,565.54 L 425.24,565.54 L 424.75,565.50 L 424.93,529.97 L 424.95,522.80 L 424.95,518.21 L 424.95,516.04 L 424.93,511.80 L 424.91,509.84 L 424.88,506.06 L 424.86,504.37 L 424.81,501.13 L 424.78,499.76 L 424.72,497.18 L 424.68,496.18 L 424.61,494.36 L 424.57,493.77 L 424.48,492.81 L 424.43,492.69 L 424.06,492.15 L 423.60,491.85 L 423.20,491.73 L 422.26,491.51 L 421.54,491.43 L 419.92,491.27 L 418.77,491.22 L 417.57,491.17 L 416.87,491.14 L 415.41,491.11 L 414.57,491.09 L 412.83,491.06 L 411.84,491.05 L 409.78,491.03 L 408.63,491.03 L 406.24,491.02 L 404.91,491.02 L 402.16,491.02 L 400.63,491.02 L 397.49,491.02 L 395.77,491.03 L 392.21,491.03 L 390.27,491.04 L 383.51,491.07 L 379.19,491.10 L 377.16,491.12 L 373.17,491.17 L 371.34,491.19 L 367.79,491.24 L 366.21,491.27 L 363.19,491.33 L 361.91,491.36 L 359.51,491.43 L 358.57,491.47 L 356.89,491.54 L 356.35,491.57 L 355.49,491.64 L 355.39,491.68 L 355.00,492.16 L 354.78,492.84 L 354.69,493.42 L 354.51,494.72 L 354.44,495.66 L 354.31,497.72 L 354.26,499.09 L 354.19,501.30 L 354.18,499.99 L 354.12,497.05 L 354.09,495.67 L 354.02,493.49 L 353.98,492.51 L 353.90,491.21 L 353.75,490.34 L 353.72,490.33 L 353.67,489.96 L 353.65,489.73 L 353.60,488.94 L 353.57,488.49 L 353.53,487.30 L 353.50,486.65 L 353.46,485.08 L 353.44,484.25 L 353.39,482.32 L 353.37,481.31 L 353.33,479.04 L 353.31,477.87 L 353.27,475.29 L 353.26,473.96 L 353.22,471.09 L 353.19,468.15 L 353.13,461.49 L 353.10,458.04 L 353.06,450.50 L 353.04,446.64 L 353.02,438.40 L 353.00,425.44 L 353.00,421.01 L 352.98,412.50 L 352.97,408.31 L 352.94,400.42 L 352.92,396.57 L 352.87,389.48 L 352.84,386.05 L 352.77,379.93 L 352.75,378.47 L 352.71,375.76 L 352.69,374.45 L 352.65,372.04 L 352.63,370.88 L 352.59,368.81 L 352.57,367.81 L 352.52,366.08 L 352.50,365.27 L 352.45,363.91 L 352.42,363.28 L 352.37,362.32 L 352.35,361.88 L 352.30,361.33 L 352.22,361.00 L 352.16,361.00 L 351.81,361.27 L 351.59,361.44 L 350.95,362.03 L 350.60,362.36 L 349.71,363.22 L 349.24,363.68 L 348.51,364.40 L 348.69,364.21 L 349.93,362.94 L 355.07,357.64 L 357.91,354.72 L 363.74,348.73 L 366.88,345.51 L 373.29,338.92 L 375.81,336.34 M 118.14,544.00 L 118.50,496.50 L 154.25,496.24 L 190.00,495.97 L 190.00,544.00 M 270.14,422.27 L 270.11,422.23 L 270.27,422.33 L 271.75,423.00 L 271.46,423.00 M 503.96,462.00 L 432.29,462.00 L 431.71,477.75 L 431.60,481.65 L 431.53,484.87 L 431.50,486.73 L 431.45,490.61 L 431.42,492.76 L 431.38,497.18 L 431.36,499.10 L 431.25,445.25 L 431.23,436.95 L 431.21,420.93 L 431.21,416.99 L 431.20,409.30 L 431.20,405.49 L 431.20,398.11 L 431.20,394.46 L 431.20,387.42 L 431.20,383.95 L 431.20,377.30 L 431.21,374.03 L 431.22,367.81 L 431.22,364.76 L 431.23,359.02 L 431.24,356.21 L 431.26,350.98 L 431.27,348.43 L 431.28,343.76 L 431.29,341.50 L 431.32,337.43 L 431.33,335.47 L 431.35,332.04 L 431.37,330.41 L 431.40,327.67 L 431.41,326.38 L 431.44,324.37 L 431.46,323.45 L 431.49,322.21 L 431.55,321.25 L 432.09,318.00 L 504.04,318.00 M 124.48,453.57 L 125.18,454.65 L 125.63,455.15 L 125.99,455.46 L 125.91,455.42 L 125.46,455.01 L 124.60,454.50 L 124.41,454.37 L 124.18,454.05 L 124.09,453.87 L 124.10,453.40 L 124.15,453.14 L 124.25,452.96 M 172.14,415.82 L 169.47,418.32 L 164.59,422.86 L 162.23,425.06 L 157.95,429.04 L 155.88,430.97 L 152.15,434.43 L 150.35,436.10 L 147.13,439.07 L 145.58,440.50 L 143.86,442.07 L 144.66,441.34 L 148.64,437.65 L 150.81,435.63 L 155.26,431.51 L 157.63,429.31 L 162.45,424.83 L 164.97,422.49 L 170.08,417.74 L 172.71,415.30 L 173.28,414.76 M 192.76,387.14 L 190.84,388.92 L 187.06,392.45 L 185.25,394.13 L 181.68,397.46 L 179.97,399.06 L 176.61,402.19 L 175.00,403.70 L 171.83,406.65 L 170.32,408.06 L 164.47,413.53 L 161.81,416.01 L 156.69,420.80 L 154.38,422.96 L 149.94,427.12 L 147.96,428.98 L 144.16,432.55 L 142.48,434.13 L 139.26,437.16 L 138.41,437.96 L 139.08,437.32 L 140.04,436.41 L 142.11,434.44 L 143.18,433.43 L 145.50,431.25 L 146.69,430.12 L 149.26,427.71 L 150.58,426.47 L 153.41,423.81 L 154.86,422.45 L 157.98,419.54 L 159.57,418.06 L 162.97,414.88 L 164.71,413.26 L 168.42,409.80 L 170.31,408.04 L 174.33,404.30 L 176.38,402.39 L 180.72,398.34 L 182.94,396.28 L 187.62,391.92 L 190.01,389.70 L 195.04,385.01 L 202.99,377.60 L 196.75,383.41 M 267.04,403.68 L 267.00,404.00 L 267.00,403.66 L 267.12,403.28 M 269.97,399.65 L 269.54,399.95 L 268.72,400.59 L 268.38,400.98 L 267.76,401.80 L 267.53,402.26 L 267.20,403.06 L 267.44,402.33 L 267.72,401.69 L 268.61,400.62 L 269.10,400.12 L 270.32,399.44 L 270.69,399.36 M 268.29,392.77 L 268.29,392.77 L 268.29,392.76 M 267.80,392.03 L 267.51,391.60 L 267.48,391.48 M 268.92,386.57 L 267.58,388.17 L 267.11,389.23 L 267.09,389.77 L 267.14,390.30 L 267.00,389.83 L 267.00,389.36 L 267.32,388.47 L 267.52,388.04 L 268.17,387.26 L 268.89,386.52 L 269.09,386.41 M 304.60,385.41 L 305.64,386.50 L 305.73,386.73 L 304.77,385.87 L 303.64,385.50 L 303.00,385.50 L 301.23,385.87 L 300.41,386.38 L 300.55,386.02 L 301.40,385.41 L 301.87,385.16 L 303.00,385.04 L 303.57,385.04 M 315.64,385.57 L 315.60,385.69 L 315.65,385.29 M 289.62,385.35 L 289.69,385.41 L 288.42,385.17 L 287.10,385.28 L 286.44,385.45 L 285.89,385.63 L 286.26,385.44 L 286.85,385.19 L 288.05,385.05 L 288.63,385.03 M 271.05,385.45 L 271.35,385.34 L 271.54,385.30 M 315.64,384.59 L 315.67,384.90 L 315.66,384.96 L 315.59,384.51 M 309.79,381.50 L 310.48,381.69 L 311.80,382.09 L 311.87,382.12 L 310.17,381.62 L 309.41,381.42 M 296.38,376.54 L 296.91,376.96 L 297.91,377.90 L 298.18,378.49 L 298.93,379.79 L 299.51,380.36 L 299.91,380.53 L 300.82,380.78 L 301.46,380.83 L 302.06,380.84 L 301.07,380.88 L 300.56,380.86 L 299.82,380.64 L 299.48,380.48 L 298.96,379.91 L 298.22,378.59 L 297.94,377.97 L 296.93,377.00 L 296.39,376.56 L 295.49,376.18 M 237.54,355.22 L 237.36,355.35 L 236.82,355.79 L 236.51,356.03 L 235.75,356.68 L 235.34,357.03 L 234.38,357.87 L 233.39,358.75 L 230.95,360.97 L 226.86,364.75 L 226.51,365.09 L 225.57,365.96 L 225.07,366.43 L 224.51,366.96 L 224.69,366.78 L 226.86,364.75 L 230.94,360.97 L 233.39,358.75 L 234.38,357.87 L 235.34,357.03 L 235.75,356.68 L 236.51,356.03 L 236.82,355.79 L 237.36,355.35 L 237.54,355.22 L 237.83,355.03 M 468.39,242.09 L 468.77,242.24 L 469.05,242.36 L 470.39,242.94 L 471.36,243.37 L 473.50,244.34 L 474.82,244.95 L 477.64,246.25 L 479.25,247.00 L 482.62,248.57 L 484.46,249.44 L 488.24,251.21 L 490.24,252.15 L 498.51,256.06 L 502.77,258.09 L 508.21,260.68 L 507.06,260.15 L 500.61,257.09 L 498.41,256.06 L 494.19,254.06 L 492.11,253.08 L 488.18,251.23 L 486.25,250.33 L 482.70,248.67 L 480.98,247.87 L 477.90,246.43 L 476.43,245.75 L 473.91,244.59 L 472.73,244.04 L 470.86,243.19 L 470.01,242.81 L 468.88,242.31 L 468.14,242.01 M 468.10,242.00 L 468.07,242.00 L 467.47,242.54 L 467.09,242.89 L 465.86,244.07 L 465.24,244.68 L 465.86,244.07 L 467.08,242.89 L 467.46,242.54 L 468.06,242.00 L 468.10,242.00 M 80.46,566.02 L 76.18,566.04 L 74.26,566.07 L 70.59,566.12 L 68.98,566.15 L 65.92,566.22 L 64.62,566.26 L 62.18,566.36 L 61.18,566.41 L 59.36,566.53 L 58.68,566.59 L 57.47,566.73 L 57.10,566.80 L 56.54,566.96 L 57.10,566.80 L 57.47,566.73 L 58.68,566.59 L 59.36,566.53 L 61.18,566.41 L 62.17,566.36 L 64.62,566.26 L 65.92,566.22 L 68.98,566.15 L 70.59,566.12 L 74.26,566.07 L 76.17,566.04 L 80.45,566.02 L 87.55,566.00 L 87.56,566.00 M 269.87,408.69 L 269.25,408.49 L 269.19,408.44 L 269.87,408.65 L 271.43,409.00 L 271.19,409.00 M 270.82,413.50 L 272.31,413.00 L 272.52,413.00 M 270.58,394.51 L 269.95,394.21 L 270.51,394.46 L 272.01,395.00 L 271.84,395.00 M 271.79,399.12 L 272.36,399.00 L 272.57,399.00 M 273.88,422.87 L 274.46,422.58 L 274.63,422.25 L 274.89,421.43 L 274.94,420.74 L 275.00,419.16 L 275.00,418.00 L 274.94,415.26 L 274.79,414.09 L 274.63,413.75 L 274.22,413.23 L 273.88,413.13 L 273.10,413.00 L 272.71,413.00 L 273.34,412.89 L 273.62,412.81 L 274.04,412.53 L 274.22,412.37 L 274.44,411.91 L 274.57,411.00 L 274.57,410.63 L 274.44,410.06 L 274.34,409.80 L 274.00,409.44 L 273.79,409.29 L 273.20,409.10 L 271.99,409.00 L 272.20,409.00 L 273.77,408.90 L 274.43,408.63 L 274.61,408.30 L 274.89,407.50 L 274.94,406.81 L 274.98,406.06 L 274.99,405.60 L 275.00,404.60 L 275.00,404.00 L 274.94,401.27 L 274.79,400.10 L 274.63,399.76 L 274.23,399.24 L 273.90,399.13 L 273.13,399.00 L 272.74,399.00 L 273.36,398.88 L 273.64,398.81 L 274.04,398.52 L 274.57,397.00 L 274.57,396.31 L 274.06,395.48 L 272.44,395.00 L 272.65,395.00 L 273.86,394.87 L 274.42,394.61 L 274.60,394.36 L 274.90,393.76 L 274.99,393.30 L 275.12,392.24 L 275.15,391.50 L 275.29,388.66 L 275.33,387.84 L 275.35,387.51 L 275.39,386.92 L 275.40,386.75 L 275.25,386.10 L 274.97,385.75 L 274.75,385.62 L 273.70,385.22 L 273.01,385.20 L 271.58,385.29 L 272.35,385.13 L 272.85,385.05 L 273.76,385.11 L 274.19,385.18 L 274.91,385.55 L 275.64,386.50 L 275.73,386.73 L 276.12,387.13 L 276.34,387.31 L 276.98,387.60 L 279.68,388.00 L 280.63,388.00 L 282.57,387.56 L 283.02,387.42 L 283.79,387.08 L 284.00,386.94 L 284.00,387.02 L 284.10,387.28 L 284.28,387.40 L 284.71,387.62 L 285.03,387.71 L 286.54,388.00 L 287.50,388.00 L 289.62,387.79 L 290.57,387.46 L 290.80,387.23 L 291.01,386.85 L 291.18,386.99 L 291.48,387.18 L 292.32,387.47 L 293.21,387.72 L 295.47,387.88 L 296.60,387.90 L 298.62,387.57 L 299.07,387.46 L 299.76,387.13 L 300.32,386.55 L 300.25,386.75 L 300.19,387.14 L 300.27,387.29 L 300.51,387.58 L 300.74,387.68 L 301.27,387.87 L 301.65,387.92 L 302.48,388.00 L 303.00,388.00 L 304.35,387.92 L 305.03,387.79 L 305.26,387.68 L 305.65,387.45 L 305.73,387.29 L 305.82,386.96 L 305.76,386.78 L 306.26,387.20 L 306.56,387.40 L 307.39,387.69 L 308.28,387.95 L 310.52,388.07 L 311.63,388.06 L 313.64,387.64 L 314.08,387.50 L 314.77,387.12 L 315.40,386.41 L 315.46,386.25 L 315.30,387.08 L 315.49,387.55 L 315.81,387.69 L 316.64,387.90 L 317.37,387.95 L 318.16,387.98 L 318.65,387.99 L 319.69,388.00 L 325.78,388.00 L 333.64,379.79 L 335.43,377.91 L 336.83,376.46 L 337.55,375.71 L 335.66,377.73 L 334.27,379.21 L 331.86,381.84 L 331.30,382.46 L 330.32,383.56 L 329.86,384.08 L 329.10,384.95 L 328.76,385.35 L 328.28,385.95 L 327.91,386.50 L 327.85,386.65 L 328.42,386.95 L 328.81,387.09 L 330.20,387.36 L 331.00,387.49 L 333.12,387.72 L 337.00,388.00 L 346.50,388.50 L 346.74,448.50 L 346.75,452.62 L 346.79,461.14 L 346.80,465.42 L 346.83,474.07 L 346.85,478.38 L 346.87,486.91 L 346.89,491.14 L 346.91,499.32 L 346.92,503.34 L 346.94,510.92 L 346.95,514.61 L 346.97,521.35 L 346.97,522.97 L 346.97,524.63 L 346.96,523.08 L 346.95,522.11 L 346.93,520.24 L 346.92,519.41 L 346.89,517.81 L 346.87,517.11 L 346.80,514.53 L 346.74,513.56 L 346.62,511.84 L 346.54,511.24 L 346.37,510.22 L 346.26,509.93 L 346.03,509.46 L 345.89,509.39 L 345.60,509.32 L 345.42,509.39 L 344.39,509.51 L 343.03,509.59 L 342.05,509.63 L 339.89,509.70 L 338.55,509.73 L 335.70,509.79 L 334.04,509.82 L 330.59,509.87 L 328.68,509.90 L 324.73,509.94 L 322.60,509.95 L 318.25,509.98 L 315.96,509.99 L 311.32,510.00 L 274.34,510.00 L 274.34,505.09 L 274.34,498.61 L 274.31,485.27 L 274.30,481.97 L 274.28,475.51 L 274.23,466.25 L 274.21,463.61 L 274.18,458.82 L 274.17,456.49 L 274.14,452.28 L 274.12,450.25 L 274.09,446.60 L 274.07,444.84 L 274.04,441.70 L 274.02,440.19 L 273.98,437.53 L 273.96,436.26 L 273.91,434.03 L 273.89,432.97 L 273.83,431.15 L 273.80,430.28 L 273.73,428.81 L 273.70,428.12 L 273.61,426.97 L 273.57,426.43 L 273.48,425.57 L 273.37,424.76 L 273.12,423.83 L 272.98,423.45 L 272.63,423.13 L 272.00,423.00 L 272.52,423.00 M 460.67,238.96 L 462.12,237.52 L 460.67,238.96 L 459.93,239.75 L 459.20,240.53 L 459.93,239.75 M 474.47,237.32 L 473.18,236.74 L 470.75,235.67 L 469.81,235.26 L 468.11,234.54 L 469.81,235.26 L 470.75,235.67 L 473.18,236.74 L 474.47,237.32 L 477.54,238.70 L 479.14,239.42 L 477.54,238.70 M 466.70,234.00 L 467.57,234.33 L 466.70,234.00 L 466.61,234.00 L 465.68,234.45 L 466.61,234.00 Z" fill="rgba(25,180,234,1)"/>
<path d="M 503.81,565.50 L 503.90,533.44 L 503.81,565.50 L 506.91,565.81 L 510.00,566.13 L 506.91,565.81 M 197.04,528.00 L 196.50,565.50 L 197.04,526.09 L 233.02,526.02 L 269.00,525.96 L 269.00,528.00 M 504.07,465.00 L 432.30,465.00 L 431.70,479.25 L 431.59,482.85 L 431.52,485.87 L 431.51,486.06 L 431.53,484.87 L 431.60,481.65 L 431.71,477.75 L 432.29,462.00 L 504.08,462.00 M 293.00,377.40 L 292.45,378.36 L 292.10,378.83 L 291.86,379.02 L 292.43,378.39 L 292.65,377.92 L 293.00,376.95 M 286.47,380.97 L 287.04,380.96 L 287.27,380.95 L 286.96,381.00 L 286.13,381.00 L 285.45,380.77 M 284.65,380.48 L 284.11,380.22 L 284.00,380.10 M 282.89,378.80 L 282.76,378.61 L 282.71,378.47 M 292.53,375.36 L 291.75,374.68 L 291.12,374.35 L 289.72,373.69 L 288.78,373.37 L 286.75,372.72 L 285.50,372.41 L 284.26,372.21 L 283.65,372.26 L 283.43,372.40 L 283.03,372.76 L 282.87,373.08 L 282.59,373.80 L 282.46,374.31 L 282.34,376.69 L 282.59,378.05 L 282.30,377.07 L 282.21,374.29 L 282.25,373.96 L 282.25,373.39 L 282.22,373.11 L 281.97,372.59 L 281.81,372.33 L 281.16,371.79 L 280.77,371.50 L 279.56,370.85 L 278.87,370.50 L 276.93,369.65 L 275.86,369.20 L 273.04,368.08 L 272.27,367.78 L 270.54,367.12 L 269.65,366.77 L 267.64,366.01 L 266.60,365.62 L 264.30,364.75 L 260.50,363.32 L 257.47,362.19 L 251.91,360.11 L 250.58,359.62 L 248.11,358.71 L 246.92,358.26 L 244.78,357.48 L 243.75,357.10 L 242.00,356.46 L 241.17,356.16 L 239.86,355.69 L 239.26,355.48 L 238.45,355.20 L 237.88,355.03 L 237.83,355.03 L 237.54,355.22 L 237.36,355.35 L 236.82,355.79 L 236.51,356.03 L 235.75,356.68 L 235.34,357.03 L 234.38,357.87 L 233.39,358.75 L 230.94,360.97 L 226.86,364.75 L 224.69,366.78 L 220.05,371.13 L 217.68,373.35 L 212.71,378.00 L 210.19,380.35 L 204.97,385.23 L 202.34,387.68 L 196.97,392.69 L 191.58,397.72 L 180.71,407.85 L 178.01,410.36 L 172.71,415.30 L 170.08,417.74 L 164.97,422.49 L 162.45,424.83 L 157.63,429.31 L 155.26,431.51 L 150.81,435.63 L 148.64,437.65 L 144.66,441.34 L 142.73,443.12 L 139.29,446.30 L 137.65,447.81 L 134.85,450.39 L 133.54,451.60 L 131.46,453.50 L 130.99,453.93 L 130.21,454.65 L 129.84,454.98 L 129.26,455.50 L 129.00,455.74 L 128.65,456.05 L 128.38,456.27 L 128.08,456.46 L 127.12,456.22 L 126.62,456.02 L 125.63,455.15 L 125.18,454.65 L 124.48,453.57 L 124.00,452.30 L 124.00,452.25 L 124.14,452.01 L 124.23,451.87 L 124.59,451.43 L 124.80,451.19 L 125.43,450.52 L 125.79,450.14 L 126.73,449.19 L 127.25,448.67 L 128.55,447.39 L 129.26,446.70 L 130.97,445.04 L 131.88,444.17 L 134.05,442.10 L 135.20,441.01 L 137.86,438.48 L 139.26,437.16 L 142.48,434.13 L 144.16,432.55 L 147.96,428.98 L 149.94,427.12 L 154.38,422.96 L 156.69,420.80 L 161.81,416.01 L 164.47,413.53 L 170.32,408.06 L 171.83,406.65 L 175.00,403.70 L 176.61,402.19 L 179.97,399.06 L 181.68,397.46 L 185.25,394.13 L 187.06,392.45 L 190.84,388.92 L 192.76,387.14 L 196.75,383.41 L 202.99,377.60 L 206.23,374.58 L 212.49,368.74 L 214.01,367.32 L 216.91,364.61 L 218.33,363.28 L 220.97,360.81 L 222.24,359.62 L 224.53,357.47 L 225.63,356.44 L 227.50,354.68 L 228.37,353.86 L 229.75,352.56 L 231.16,351.22 L 235.83,346.74 L 267.16,358.26 L 269.32,359.05 L 273.51,360.58 L 275.58,361.34 L 279.53,362.78 L 281.46,363.49 L 285.08,364.80 L 286.84,365.44 L 290.03,366.59 L 291.56,367.15 L 294.23,368.10 L 295.50,368.56 L 297.56,369.29 L 298.50,369.62 L 299.86,370.09 L 301.00,370.47 L 301.34,370.56 L 302.32,370.89 L 302.84,371.08 L 304.05,371.54 L 307.87,373.14 L 312.24,375.12 L 314.63,372.87 L 315.13,372.41 L 315.95,371.78 L 316.35,371.51 L 317.09,371.23 L 317.47,371.14 L 317.90,371.17 L 317.23,371.34 L 316.38,371.62 L 315.97,371.86 L 315.16,372.40 L 312.62,374.94 L 316.06,376.43 L 317.35,376.97 L 317.92,377.18 L 318.99,377.56 L 319.45,377.69 L 321.08,378.02 L 321.61,377.93 L 322.48,377.58 L 322.68,377.13 L 322.91,376.07 L 322.82,375.27 L 322.64,374.59 L 322.83,375.02 L 322.93,375.70 L 323.28,376.99 L 323.89,378.26 L 323.92,378.28 L 324.12,378.18 L 324.24,378.10 L 324.64,377.79 L 325.08,377.44 L 326.49,376.17 L 327.28,375.44 L 329.34,373.50 L 330.43,372.45 L 333.04,369.91 L 334.40,368.57 L 337.48,365.52 L 339.07,363.93 L 342.54,360.45 L 344.32,358.66 L 348.09,354.82 L 354.01,348.76 L 355.02,347.72 L 357.19,345.49 L 358.30,344.35 L 360.64,341.94 L 363.03,339.48 L 368.23,334.13 L 370.89,331.39 L 376.52,325.62 L 379.36,322.69 L 385.22,316.67 L 391.11,310.62 L 402.86,298.56 L 405.73,295.61 L 411.24,289.95 L 418.99,282.00 L 421.44,279.49 L 426.25,274.55 L 428.63,272.10 L 433.23,267.37 L 435.50,265.05 L 439.77,260.64 L 441.86,258.49 L 445.70,254.53 L 447.55,252.62 L 450.85,249.21 L 452.41,247.59 L 455.05,244.86 L 455.66,244.23 L 456.74,243.10 L 457.25,242.57 L 458.13,241.65 L 458.54,241.22 L 459.20,240.53 L 459.93,239.75 L 460.67,238.96 L 462.12,237.52 L 462.83,236.83 L 464.11,235.69 L 464.71,235.17 L 465.68,234.45 L 466.61,234.00 L 466.70,234.00 L 467.57,234.33 L 468.11,234.54 L 469.81,235.26 L 470.75,235.67 L 473.18,236.74 L 474.47,237.32 L 477.54,238.70 L 479.14,239.42 L 482.73,241.07 L 484.59,241.92 L 488.63,243.79 L 490.70,244.74 L 495.08,246.79 L 501.94,250.00 L 504.28,251.10 L 508.80,253.21 L 511.02,254.25 L 515.25,256.21 L 517.32,257.17 L 521.16,258.93 L 523.02,259.78 L 526.37,261.30 L 527.97,262.02 L 530.74,263.26 L 532.04,263.83 L 534.12,264.74 L 535.07,265.14 L 536.38,265.67 L 537.36,266.00 L 537.43,266.00 L 537.77,265.78 L 537.97,265.64 L 538.56,265.14 L 538.89,264.85 L 539.72,264.07 L 540.17,263.64 L 541.25,262.58 L 541.82,262.02 L 543.14,260.68 L 543.83,259.98 L 545.39,258.38 L 546.19,257.55 L 547.98,255.68 L 548.90,254.72 L 550.91,252.59 L 551.95,251.50 L 554.18,249.12 L 555.33,247.90 L 557.78,245.26 L 559.04,243.92 L 561.71,241.04 L 563.07,239.57 L 565.95,236.44 L 567.42,234.85 L 570.51,231.49 L 572.08,229.78 L 575.37,226.18 L 577.04,224.36 L 580.53,220.53 L 585.99,214.54 L 586.37,214.12 L 587.27,213.13 L 587.75,212.62 L 588.81,211.45 L 589.91,210.26 L 592.44,207.52 L 593.73,206.13 L 596.41,203.25 L 600.24,199.14 L 601.44,197.85 L 603.64,195.41 L 604.69,194.23 L 606.42,192.19 L 607.21,191.24 L 608.30,189.82 L 608.52,189.51 L 608.81,189.06 L 608.98,188.64 L 608.98,188.48 L 608.42,187.73 L 608.06,187.29 L 606.91,186.09 L 606.27,185.45 L 604.68,183.96 L 601.96,181.57 L 601.00,180.75 L 599.27,179.18 L 598.45,178.42 L 597.11,177.07 L 596.51,176.44 L 595.72,175.47 L 595.30,174.60 L 595.33,174.51 L 595.92,174.17 L 596.29,173.97 L 597.50,173.44 L 598.17,173.15 L 599.91,172.45 L 600.83,172.08 L 603.00,171.25 L 604.14,170.82 L 606.66,169.89 L 607.95,169.42 L 610.73,168.42 L 613.55,167.41 L 619.57,165.32 L 622.58,164.28 L 628.43,162.33 L 629.85,161.86 L 632.53,160.99 L 633.83,160.57 L 636.22,159.82 L 637.36,159.46 L 639.36,158.87 L 640.31,158.59 L 641.83,158.18 L 642.52,158.00 L 643.48,157.80 L 644.18,157.78 L 644.22,157.82 L 644.20,158.45 L 644.17,158.86 L 644.01,160.13 L 643.91,160.84 L 643.64,162.66 L 643.49,163.63 L 643.11,165.90 L 642.92,167.08 L 642.46,169.71 L 642.23,171.06 L 641.71,173.96 L 641.18,176.90 L 640.01,183.16 L 639.42,186.29 L 638.23,192.38 L 637.94,193.86 L 637.38,196.64 L 637.10,198.00 L 636.58,200.48 L 636.33,201.68 L 635.88,203.76 L 635.66,204.74 L 635.28,206.33 L 635.11,207.05 L 634.83,208.06 L 634.54,208.79 L 634.40,208.94 L 634.01,208.96 L 633.88,208.92 L 633.49,208.70 L 633.26,208.56 L 632.63,208.08 L 632.28,207.81 L 631.32,207.02 L 630.79,206.58 L 629.42,205.41 L 628.68,204.77 L 626.83,203.17 L 623.41,200.19 L 622.44,199.33 L 620.58,197.78 L 619.68,197.04 L 618.11,195.82 L 617.37,195.26 L 616.25,194.49 L 615.29,194.00 L 615.22,194.00 L 614.87,194.23 L 614.67,194.38 L 614.08,194.89 L 613.75,195.17 L 612.95,195.93 L 612.52,196.33 L 611.53,197.30 L 610.51,198.32 L 608.03,200.88 L 603.95,205.25 L 602.53,206.80 L 599.18,210.45 L 597.46,212.32 L 593.83,216.28 L 592.03,218.25 L 588.55,222.04 L 587.71,222.95 L 586.14,224.66 L 583.99,227.00 L 583.33,227.72 L 581.71,229.48 L 580.86,230.40 L 578.93,232.51 L 577.93,233.60 L 575.75,235.97 L 574.64,237.19 L 572.28,239.75 L 569.90,242.35 L 564.91,247.78 L 557.67,255.66 L 555.38,258.16 L 551.20,262.80 L 550.20,263.92 L 548.37,265.99 L 547.48,266.99 L 545.90,268.81 L 545.14,269.68 L 543.86,271.20 L 543.26,271.91 L 542.32,273.06 L 541.89,273.59 L 541.34,274.33 L 541.00,274.91 L 541.00,275.26 L 540.62,275.70 L 540.39,275.87 L 539.69,275.97 L 539.32,275.97 L 538.50,275.72 L 537.36,274.96 L 537.33,274.93 L 537.07,274.77 L 536.91,274.68 L 536.42,274.42 L 535.87,274.13 L 534.13,273.25 L 533.16,272.76 L 530.68,271.53 L 529.36,270.88 L 526.26,269.37 L 524.65,268.59 L 521.06,266.86 L 519.23,265.97 L 515.29,264.07 L 511.29,262.15 L 502.77,258.09 L 498.51,256.06 L 490.24,252.15 L 488.24,251.21 L 484.46,249.44 L 482.62,248.57 L 479.25,247.00 L 477.64,246.25 L 474.82,244.95 L 473.50,244.34 L 471.36,243.37 L 470.39,242.94 L 469.05,242.36 L 468.77,242.24 L 468.39,242.09 L 468.10,242.00 L 468.06,242.00 L 467.46,242.54 L 467.08,242.89 L 465.86,244.07 L 465.18,244.74 L 463.41,246.50 L 462.46,247.45 L 460.21,249.71 L 459.03,250.90 L 456.37,253.60 L 455.00,255.00 L 452.00,258.06 L 450.47,259.63 L 447.20,262.98 L 442.08,268.25 L 440.34,270.06 L 436.60,273.91 L 434.70,275.87 L 430.75,279.94 L 426.77,284.05 L 418.68,292.38 L 416.68,294.43 L 412.81,298.41 L 410.91,300.36 L 407.31,304.06 L 405.55,305.87 L 402.34,309.16 L 398.08,313.52 L 394.37,317.32 L 387.14,324.73 L 383.56,328.39 L 376.68,335.45 L 373.29,338.92 L 366.88,345.51 L 363.74,348.73 L 357.91,354.72 L 355.07,357.64 L 349.93,362.94 L 348.69,364.21 L 346.36,366.61 L 345.23,367.78 L 343.11,369.96 L 342.08,371.03 L 340.19,372.98 L 339.28,373.93 L 337.63,375.64 L 336.83,376.46 L 335.43,377.91 L 333.64,379.79 L 325.78,388.00 L 319.69,388.00 L 318.65,387.99 L 318.16,387.98 L 317.37,387.95 L 317.04,387.93 L 318.48,387.71 L 319.52,387.31 L 319.90,387.03 L 320.54,386.44 L 320.67,386.11 L 320.77,385.44 L 320.57,385.11 L 319.59,384.44 L 318.58,384.11 L 318.05,384.03 L 317.00,383.93 L 316.62,383.99 L 316.00,384.18 L 316.00,384.42 L 315.82,385.18 L 315.56,385.98 L 315.46,386.25 L 315.51,385.98 L 315.64,385.57 L 315.67,384.90 L 315.64,384.59 L 315.28,384.03 L 315.04,383.76 L 314.21,383.22 L 312.32,382.31 L 311.80,382.09 L 310.48,381.69 L 309.79,381.50 L 308.27,381.20 L 304.24,380.86 L 304.35,380.84 L 304.47,380.73 L 304.62,380.47 L 304.53,380.27 L 304.26,379.82 L 304.00,379.50 L 302.43,378.44 L 301.05,378.00 L 300.41,378.00 L 299.37,378.08 L 298.88,378.23 L 298.74,378.35 L 298.52,378.62 L 298.51,378.81 L 298.53,379.10 L 298.18,378.49 L 297.91,377.90 L 296.91,376.96 L 296.38,376.54 L 295.18,376.05 L 294.60,375.88 L 293.66,375.97 L 293.46,376.04 L 293.18,376.31 L 293.00,376.93 L 293.00,376.40 Z" fill="rgba(105,189,195,1)"/>
<path d="M 424.43,492.69 L 424.48,492.81 L 424.52,493.21 L 424.36,492.58 M 383.59,491.07 L 379.26,491.10 L 377.21,491.12 L 373.22,491.17 L 371.38,491.19 L 367.82,491.24 L 366.24,491.27 L 363.21,491.33 L 361.92,491.36 L 359.52,491.43 L 358.58,491.47 L 356.89,491.54 L 356.35,491.57 L 355.49,491.64 L 356.35,491.57 L 356.89,491.54 L 358.57,491.47 L 359.51,491.43 L 361.91,491.36 L 363.19,491.33 L 366.21,491.27 L 367.79,491.24 L 371.34,491.19 L 373.17,491.17 L 377.16,491.12 L 379.19,491.10 L 383.51,491.07 L 390.27,491.04 L 390.36,491.04 M 510.00,451.05 L 546.00,450.77 L 548.21,450.76 L 552.24,450.73 L 554.19,450.71 L 557.72,450.69 L 559.42,450.68 L 559.87,450.68 L 559.42,450.68 L 557.72,450.69 L 554.19,450.71 L 552.24,450.73 L 548.21,450.76 L 546.00,450.77 L 510.00,451.05 L 510.00,508.59 M 553.23,565.98 L 557.83,565.96 L 559.98,565.94 L 564.18,565.90 L 566.09,565.87 L 569.80,565.81 L 571.43,565.78 L 574.54,565.71 L 575.84,565.67 L 578.25,565.59 L 579.17,565.54 L 580.79,565.45 L 581.27,565.40 L 582.01,565.30 L 582.01,565.25 L 582.01,564.78 L 582.02,564.17 L 582.02,563.72 L 582.02,562.73 L 582.02,562.11 L 582.02,560.78 L 582.02,559.99 L 582.02,558.33 L 582.02,557.39 L 582.03,555.44 L 582.03,554.36 L 582.03,549.79 L 582.03,547.16 L 582.03,541.70 L 582.03,538.71 L 582.04,532.56 L 582.04,529.30 L 582.04,522.68 L 582.04,519.27 L 582.04,512.38 L 582.04,508.92 L 582.04,501.98 L 582.04,498.56 L 582.04,491.79 L 582.04,488.53 L 582.04,482.11 L 582.04,479.12 L 582.04,473.28 L 582.04,470.65 L 582.04,465.60 L 582.04,463.44 L 582.04,461.34 L 582.04,460.40 L 582.04,458.59 L 582.04,457.80 L 582.04,456.30 L 582.04,455.67 L 582.04,454.50 L 582.04,454.05 L 582.03,453.24 L 582.03,452.98 L 582.03,452.56 L 582.03,452.50 L 581.93,451.85 L 581.68,451.50 L 581.37,451.36 L 580.61,451.11 L 579.96,451.02 L 578.66,450.88 L 579.96,451.02 L 580.61,451.11 L 581.37,451.36 L 581.68,451.50 L 581.93,451.85 L 582.03,452.50 L 582.03,452.57 L 582.03,452.99 L 582.03,453.25 L 582.04,454.04 L 582.04,454.48 L 582.04,455.61 L 582.04,456.22 L 582.04,457.68 L 582.04,458.44 L 582.04,460.21 L 582.04,461.12 L 582.05,463.17 L 582.05,465.29 L 582.05,470.29 L 582.05,472.91 L 582.05,478.79 L 582.05,481.83 L 582.05,488.45 L 582.05,491.83 L 582.05,499.01 L 582.05,510.25 L 582.04,566.00 L 651.16,566.00 L 660.04,566.02 L 664.38,566.03 L 672.44,566.07 L 676.35,566.09 L 683.46,566.15 L 685.18,566.16 L 688.41,566.20 L 689.98,566.22 L 692.93,566.26 L 694.37,566.28 L 697.02,566.32 L 698.31,566.34 L 700.66,566.39 L 701.79,566.41 L 703.80,566.46 L 704.77,566.49 L 706.44,566.54 L 707.23,566.57 L 708.55,566.63 L 709.16,566.66 L 710.10,566.72 L 710.52,566.75 L 711.07,566.81 L 711.44,566.91 L 711.60,567.16 L 711.66,568.02 L 711.40,569.41 L 711.36,569.50 L 710.90,569.67 L 710.58,569.75 L 709.38,569.89 L 709.02,569.93 L 708.13,570.00 L 707.65,570.03 L 706.49,570.09 L 705.88,570.13 L 704.42,570.19 L 703.66,570.21 L 701.88,570.27 L 700.95,570.30 L 698.82,570.35 L 697.70,570.37 L 695.19,570.42 L 693.88,570.44 L 690.96,570.49 L 689.44,570.51 L 686.07,570.55 L 684.33,570.57 L 680.49,570.61 L 678.51,570.62 L 674.17,570.66 L 671.94,570.67 L 667.07,570.71 L 664.57,570.72 L 659.14,570.75 L 656.36,570.76 L 650.34,570.79 L 647.26,570.80 L 640.63,570.82 L 637.23,570.83 L 629.95,570.85 L 626.23,570.86 L 618.27,570.88 L 614.21,570.89 L 605.55,570.90 L 601.13,570.91 L 591.73,570.92 L 586.94,570.93 L 576.78,570.94 L 571.60,570.95 L 560.65,570.96 L 555.07,570.96 L 543.29,570.97 L 537.30,570.97 L 524.67,570.98 L 518.25,570.98 L 504.74,570.99 L 497.87,570.99 L 483.45,570.99 L 476.12,570.99 L 460.76,571.00 L 452.96,571.00 L 436.63,571.00 L 428.34,571.00 L 411.01,571.00 L 383.86,571.00 L 374.96,571.00 L 357.86,571.00 L 349.42,571.00 L 333.24,571.00 L 325.26,571.00 L 309.97,570.99 L 302.44,570.99 L 288.02,570.99 L 280.91,570.99 L 267.34,570.98 L 260.65,570.98 L 247.89,570.97 L 241.61,570.97 L 229.65,570.96 L 223.77,570.96 L 212.57,570.95 L 207.07,570.95 L 196.63,570.94 L 191.49,570.93 L 181.77,570.92 L 176.99,570.91 L 167.96,570.90 L 163.54,570.89 L 155.18,570.87 L 151.08,570.87 L 143.37,570.85 L 139.60,570.84 L 132.51,570.82 L 129.04,570.81 L 122.56,570.79 L 119.38,570.77 L 113.47,570.75 L 110.58,570.74 L 105.22,570.71 L 102.60,570.69 L 97.76,570.66 L 95.41,570.65 L 91.07,570.62 L 88.96,570.60 L 85.09,570.56 L 83.22,570.55 L 79.81,570.51 L 78.15,570.49 L 75.17,570.45 L 73.73,570.42 L 71.14,570.38 L 69.90,570.36 L 67.69,570.31 L 66.63,570.28 L 64.78,570.23 L 63.89,570.21 L 62.37,570.15 L 61.65,570.12 L 60.42,570.07 L 59.85,570.04 L 58.91,569.97 L 58.03,569.91 L 57.01,569.77 L 56.60,569.70 L 56.38,569.55 L 56.23,569.15 L 56.18,568.21 L 56.47,567.05 L 56.52,566.96 L 57.10,566.80 L 57.47,566.73 L 58.68,566.59 L 59.36,566.53 L 61.18,566.41 L 62.18,566.36 L 64.62,566.26 L 65.92,566.22 L 68.98,566.15 L 70.59,566.12 L 74.26,566.07 L 76.18,566.04 L 80.46,566.02 L 87.56,566.00 L 190.00,566.00 L 190.00,566.13 L 193.25,565.81 L 196.50,565.50 L 197.04,528.00 L 197.08,528.00 L 196.79,547.00 L 196.50,566.00 L 232.75,566.00 L 269.00,566.00 L 354.00,566.00 L 354.00,528.44 L 354.01,535.73 L 354.04,540.38 L 354.05,542.56 L 354.09,546.82 L 354.11,548.77 L 354.17,552.55 L 354.20,554.22 L 354.26,557.41 L 354.29,558.75 L 354.37,561.26 L 354.41,562.22 L 354.49,563.93 L 354.53,564.46 L 354.62,565.29 L 354.67,565.33 L 355.05,565.46 L 355.59,565.52 L 356.89,565.62 L 357.84,565.67 L 359.92,565.75 L 361.22,565.79 L 363.97,565.85 L 365.55,565.88 L 368.84,565.93 L 370.64,565.94 L 374.34,565.97 L 376.31,565.98 L 384.41,565.99 L 388.59,565.97 L 396.97,565.92 L 400.91,565.87 L 404.80,565.81 L 406.61,565.78 L 410.16,565.71 L 411.76,565.67 L 414.83,565.59 L 416.16,565.54 L 418.64,565.44 L 419.62,565.39 L 421.39,565.27 L 421.97,565.21 L 422.89,565.09 L 423.00,565.02 L 423.43,564.47 L 423.68,563.81 L 423.78,563.28 L 423.98,562.07 L 424.06,561.21 L 424.22,559.31 L 424.28,558.04 L 424.40,555.29 L 424.45,553.55 L 424.50,551.74 L 424.53,550.73 L 424.57,548.64 L 424.59,547.49 L 424.63,545.12 L 424.65,543.81 L 424.68,541.12 L 424.70,539.66 L 424.74,536.64 L 424.75,535.00 L 424.78,531.63 L 424.80,529.81 L 424.85,522.88 L 424.87,518.43 L 424.87,516.32 L 424.87,512.19 L 424.87,510.29 L 424.86,506.59 L 424.84,504.93 L 424.81,501.75 L 424.80,500.48 L 424.81,501.13 L 424.86,504.37 L 424.88,506.06 L 424.91,509.84 L 424.93,511.80 L 424.95,516.04 L 424.95,518.21 L 424.95,522.80 L 424.93,529.97 L 424.75,565.50 L 428.12,565.80 L 431.50,566.09 L 431.46,559.50 L 431.53,560.55 L 431.58,560.91 L 432.26,566.00 L 466.38,565.98 L 473.54,565.96 L 478.05,565.93 L 480.15,565.91 L 484.24,565.85 L 486.10,565.82 L 489.68,565.75 L 491.27,565.71 L 494.28,565.62 L 495.55,565.56 L 497.93,565.46 L 498.84,565.40 L 500.50,565.28 L 501.03,565.22 L 501.89,565.09 L 502.00,565.02 L 502.44,564.37 L 502.69,563.51 L 502.79,562.80 L 502.99,561.15 L 503.07,559.96 L 503.15,558.69 L 503.18,557.95 L 503.25,556.39 L 503.29,555.50 L 503.35,553.62 L 503.38,552.55 L 503.43,550.33 L 503.45,549.07 L 503.50,546.47 L 503.52,545.02 L 503.57,542.01 L 503.58,540.34 L 503.62,536.89 L 503.64,534.99 L 503.67,531.08 L 503.69,528.94 L 503.72,524.54 L 503.74,522.14 L 503.77,517.21 L 503.79,514.54 L 504.07,465.00 L 504.08,465.00 L 503.81,565.50 L 506.91,565.81 L 510.00,566.13 L 510.00,566.00 L 546.00,566.00 M 431.61,483.03 L 431.52,486.25 L 431.48,487.74 L 431.49,487.65 L 431.52,485.87 L 431.59,482.85 L 431.70,479.25 L 432.30,465.00 L 431.75,478.75 Z" fill="rgba(33,128,133,1)"/>
<path d="M 273.88,413.13 L 274.22,413.23 L 274.63,413.75 L 274.79,414.09 L 274.94,415.26 L 275.00,418.00 L 275.00,419.16 L 274.94,420.74 L 274.89,421.43 L 274.63,422.25 L 274.46,422.58 L 273.88,422.87 L 272.52,423.00 L 271.75,423.00 L 270.27,422.33 L 269.56,421.90 L 268.41,420.50 L 268.03,419.92 L 267.55,419.07 L 267.36,418.67 L 267.27,418.00 L 267.27,417.66 L 267.55,416.93 L 268.41,415.50 L 268.92,414.72 L 270.27,413.67 L 272.52,413.00 L 273.10,413.00 M 258.60,412.77 L 259.67,413.11 L 260.19,413.33 L 261.07,414.06 L 262.05,415.63 L 262.31,416.31 L 262.44,417.60 L 262.45,418.23 L 262.16,419.39 L 261.97,419.95 L 261.34,420.91 L 260.99,421.36 L 260.10,422.08 L 259.63,422.39 L 258.57,422.80 L 258.03,422.96 L 256.89,422.99 L 256.32,422.96 L 255.18,422.56 L 254.62,422.31 L 253.57,421.43 L 253.14,421.00 L 252.46,419.81 L 252.00,418.12 L 252.00,417.43 L 252.35,416.22 L 252.58,415.64 L 253.30,414.68 L 253.70,414.24 L 254.67,413.57 L 255.18,413.27 L 256.30,412.90 L 256.87,412.76 L 258.03,412.74 M 244.13,413.31 L 244.74,413.51 L 245.70,414.21 L 246.12,414.60 L 246.67,415.66 L 247.00,417.63 L 247.00,418.17 L 246.81,419.15 L 246.68,419.62 L 246.26,420.45 L 245.80,421.23 L 244.35,422.26 L 243.56,422.66 L 241.70,422.82 L 241.22,422.80 L 240.23,422.57 L 239.74,422.42 L 238.75,421.92 L 238.25,421.63 L 237.56,420.47 L 237.28,419.83 L 237.05,418.30 L 236.99,417.52 L 237.24,416.00 L 238.20,414.20 L 238.53,413.87 L 239.81,413.35 L 242.00,413.00 L 242.80,413.00 M 242.58,398.92 L 243.17,399.02 L 244.27,399.52 L 244.79,399.81 L 245.64,400.67 L 246.03,401.14 L 246.54,402.28 L 246.74,402.89 L 246.77,404.26 L 246.18,406.50 L 245.97,406.96 L 245.49,407.67 L 245.24,408.00 L 244.63,408.45 L 244.31,408.64 L 243.51,408.87 L 242.04,409.00 L 241.00,409.00 L 239.37,408.40 L 238.62,408.00 L 237.41,406.50 L 237.03,405.92 L 236.55,405.07 L 236.36,404.67 L 236.27,404.00 L 236.27,403.66 L 236.55,402.93 L 237.41,401.50 L 237.88,400.78 L 238.98,399.82 L 239.55,399.40 L 240.76,398.99 L 241.37,398.85 M 273.90,399.13 L 274.23,399.24 L 274.63,399.76 L 274.79,400.10 L 274.94,401.27 L 275.00,404.00 L 275.00,404.60 L 274.99,405.60 L 274.98,406.06 L 274.94,406.81 L 274.89,407.50 L 274.61,408.30 L 274.43,408.63 L 273.77,408.90 L 272.20,409.00 L 271.43,409.00 L 269.87,408.65 L 269.14,408.43 L 268.20,407.80 L 267.82,407.42 L 267.33,406.55 L 267.12,406.10 L 266.96,405.14 L 266.91,404.66 L 267.04,403.68 L 267.14,403.19 L 267.53,402.26 L 267.76,401.80 L 268.38,400.98 L 268.72,400.59 L 269.54,399.95 L 269.97,399.65 L 270.95,399.25 L 272.57,399.00 L 273.13,399.00 M 259.19,399.35 L 260.80,400.20 L 261.13,400.53 L 261.65,401.81 L 262.00,404.00 L 262.00,404.71 L 261.65,406.19 L 260.80,407.80 L 260.47,408.13 L 259.19,408.65 L 257.00,409.00 L 256.28,409.00 L 254.81,408.65 L 254.12,408.43 L 253.20,407.80 L 252.87,407.47 L 252.35,406.19 L 252.00,404.00 L 252.00,403.17 L 252.32,401.82 L 252.53,401.20 L 253.26,400.26 L 253.68,399.84 L 254.82,399.32 L 257.00,399.00 L 257.71,399.00 M 244.18,385.32 L 244.80,385.53 L 245.74,386.26 L 246.16,386.68 L 246.68,387.82 L 247.00,390.00 L 247.00,390.83 L 246.68,392.18 L 246.47,392.80 L 245.74,393.74 L 245.32,394.16 L 244.18,394.68 L 242.00,395.00 L 241.28,395.00 L 239.81,394.65 L 239.12,394.43 L 238.20,393.80 L 237.87,393.47 L 237.35,392.19 L 237.00,390.00 L 237.00,389.17 L 237.32,387.82 L 237.53,387.20 L 238.26,386.26 L 238.68,385.84 L 239.82,385.32 L 242.00,385.00 L 242.83,385.00 M 273.70,385.22 L 274.75,385.62 L 274.97,385.75 L 275.25,386.10 L 275.40,386.75 L 275.39,386.92 L 275.35,387.51 L 275.33,387.84 L 275.29,388.66 L 275.15,391.50 L 275.12,392.24 L 274.99,393.30 L 274.90,393.76 L 274.60,394.36 L 274.42,394.61 L 273.86,394.87 L 272.65,395.00 L 272.01,395.00 L 270.51,394.46 L 269.79,394.13 L 268.65,393.17 L 268.11,392.57 L 267.45,391.43 L 267.19,390.86 L 267.09,389.77 L 267.11,389.23 L 267.58,388.17 L 268.92,386.57 L 269.45,386.10 L 270.85,385.52 L 271.57,385.29 L 273.01,385.20 M 257.42,385.18 L 258.24,385.27 L 259.79,385.91 L 261.60,387.51 L 261.98,388.09 L 262.29,389.26 L 262.38,389.83 L 262.20,390.95 L 262.05,391.49 L 261.46,392.47 L 261.12,392.94 L 260.24,393.71 L 259.77,394.06 L 258.69,394.55 L 258.13,394.75 L 256.97,394.87 L 256.38,394.87 L 255.23,394.55 L 254.66,394.33 L 253.63,393.48 L 253.14,392.99 L 252.50,391.92 L 252.24,391.37 L 252.07,390.21 L 252.04,389.62 L 252.33,388.42 L 253.30,386.61 L 253.72,386.03 L 255.06,385.39 L 255.78,385.16 M 289.94,385.46 L 290.48,385.79 L 290.94,386.42 L 291.08,386.72 L 290.80,387.23 L 290.57,387.46 L 289.62,387.79 L 287.50,388.00 L 286.54,388.00 L 285.03,387.71 L 284.71,387.62 L 284.28,387.40 L 284.10,387.28 L 284.00,387.02 L 284.00,386.71 L 284.73,386.13 L 285.18,385.86 L 286.44,385.45 L 287.10,385.28 L 288.42,385.17 M 304.77,385.87 L 305.75,386.75 L 305.82,386.96 L 305.73,387.29 L 305.65,387.45 L 305.26,387.68 L 305.03,387.79 L 304.35,387.92 L 303.00,388.00 L 302.48,388.00 L 301.65,387.92 L 301.27,387.87 L 300.74,387.68 L 300.51,387.58 L 300.27,387.29 L 300.19,387.14 L 300.25,386.75 L 300.36,386.41 L 301.23,385.87 L 303.00,385.50 L 303.64,385.50 M 318.05,384.03 L 318.58,384.11 L 319.59,384.44 L 320.57,385.11 L 320.77,385.44 L 320.67,386.11 L 320.54,386.44 L 319.90,387.03 L 319.52,387.31 L 318.48,387.71 L 316.64,387.98 L 316.00,387.99 L 315.38,387.62 L 315.17,387.36 L 315.39,386.42 L 315.56,385.98 L 315.82,385.18 L 316.00,384.42 L 316.00,384.18 L 316.62,383.99 L 317.00,383.93 M 258.45,371.18 L 258.88,371.28 L 259.64,371.66 L 260.00,371.88 L 260.62,372.49 L 260.91,372.82 L 261.37,373.65 L 261.57,374.09 L 261.84,375.12 L 262.00,376.88 L 262.00,377.31 L 261.46,378.41 L 261.12,378.97 L 260.13,380.09 L 259.61,380.62 L 258.49,381.44 L 257.00,382.00 L 256.85,382.00 L 255.96,381.54 L 255.45,381.26 L 254.22,380.44 L 253.51,379.94 L 252.59,378.49 L 252.22,377.72 L 251.98,376.04 L 251.95,375.20 L 252.42,373.69 L 253.93,372.04 L 254.49,371.74 L 255.56,371.35 L 256.09,371.19 L 257.08,371.07 L 257.56,371.05 M 274.36,371.34 L 274.93,371.56 L 275.81,372.33 L 276.20,372.76 L 276.70,373.94 L 277.00,376.14 L 277.00,376.74 L 276.50,378.06 L 276.19,378.72 L 275.26,379.96 L 274.76,380.55 L 273.64,381.42 L 272.00,382.00 L 271.85,382.00 L 270.96,381.54 L 270.45,381.26 L 269.22,380.44 L 268.71,380.08 L 267.97,379.21 L 267.65,378.76 L 267.27,377.75 L 267.12,377.24 L 267.08,376.19 L 267.10,375.67 L 267.36,374.64 L 267.53,374.14 L 268.07,373.23 L 268.37,372.79 L 269.17,372.07 L 269.59,371.74 L 270.61,371.29 L 272.37,371.00 L 273.12,371.00 M 242.70,371.06 L 243.83,371.45 L 245.43,372.57 L 245.93,373.07 L 246.56,374.14 L 246.82,374.68 L 247.02,375.78 L 247.07,376.33 L 246.88,377.40 L 246.75,377.92 L 246.22,378.87 L 245.91,379.33 L 245.09,380.10 L 244.65,380.46 L 243.58,380.98 L 243.02,381.20 L 241.76,381.39 L 241.11,381.44 L 239.69,381.23 L 239.20,381.12 L 238.13,380.20 L 236.92,378.28 L 236.66,377.62 L 236.54,376.34 L 236.53,375.72 L 236.83,374.58 L 237.03,374.03 L 237.67,373.08 L 238.02,372.63 L 238.91,371.93 L 239.38,371.61 L 240.44,371.22 L 240.99,371.06 L 242.13,371.03 M 302.43,378.44 L 304.00,379.50 L 304.26,379.82 L 304.53,380.27 L 304.62,380.47 L 304.47,380.73 L 304.35,380.84 L 303.74,380.95 L 302.23,381.00 L 301.35,381.00 L 299.90,380.58 L 299.58,380.45 L 299.09,380.10 L 298.88,379.92 L 298.64,379.50 L 298.54,379.23 L 298.51,378.81 L 298.52,378.62 L 298.74,378.35 L 298.88,378.23 L 299.37,378.08 L 300.41,378.00 L 301.05,378.00 M 285.50,372.41 L 286.75,372.72 L 288.78,373.37 L 289.72,373.69 L 291.12,374.35 L 291.75,374.68 L 292.53,375.36 L 293.00,376.40 L 293.00,376.95 L 292.65,377.92 L 292.43,378.39 L 291.72,379.18 L 291.33,379.55 L 290.36,380.13 L 289.86,380.40 L 288.75,380.74 L 288.19,380.88 L 287.04,380.96 L 286.47,380.97 L 285.39,380.76 L 284.87,380.61 L 283.97,380.09 L 283.56,379.78 L 282.95,378.91 L 282.64,378.33 L 282.34,376.69 L 282.46,374.31 L 282.59,373.80 L 282.87,373.08 L 283.03,372.76 L 283.43,372.40 L 283.65,372.26 L 284.26,372.21 M 319.74,371.39 L 320.53,371.64 L 321.78,372.76 L 322.05,373.09 L 322.46,373.88 L 322.82,375.27 L 322.91,376.07 L 322.68,377.13 L 322.48,377.58 L 321.61,377.93 L 321.08,378.02 L 319.45,377.69 L 318.99,377.56 L 317.92,377.18 L 317.35,376.97 L 316.06,376.43 L 312.62,374.94 L 315.16,372.40 L 315.97,371.86 L 316.38,371.62 L 317.23,371.34 L 318.08,371.12 Z" fill="rgba(227,184,156,1)"/>
<path d="M 269.00,566.00 L 232.75,566.00 L 196.50,566.00 L 196.79,547.00 L 197.08,528.00 L 269.00,528.00 M 190.00,566.00 L 118.00,566.00 L 118.00,554.99 L 118.08,556.74 L 118.38,558.23 L 118.71,559.69 L 118.93,560.34 L 119.42,561.59 L 119.72,562.10 L 121.43,565.00 L 187.77,565.00 L 188.47,561.75 L 188.78,560.04 L 189.00,558.61 L 189.11,557.80 L 189.53,554.42 L 189.67,552.88 L 189.82,551.07 L 189.88,550.08 L 189.89,549.69 L 189.87,548.33 L 189.73,547.93 L 189.34,547.27 L 188.97,547.07 L 188.10,546.74 L 187.43,546.57 L 186.03,546.40 L 184.48,546.30 L 183.44,546.26 L 181.20,546.19 L 179.85,546.16 L 177.03,546.10 L 175.43,546.08 L 172.13,546.05 L 170.35,546.04 L 166.69,546.03 L 164.77,546.03 L 156.87,546.04 L 152.83,546.08 L 144.77,546.16 L 140.99,546.23 L 137.27,546.30 L 135.53,546.34 L 132.15,546.42 L 130.61,546.47 L 127.67,546.56 L 126.41,546.61 L 124.02,546.72 L 123.08,546.78 L 121.37,546.89 L 120.80,546.96 L 119.88,547.08 L 119.75,547.15 L 118.96,547.99 L 118.55,548.88 L 118.40,549.45 L 118.13,550.67 L 118.05,551.37 L 118.00,552.04 L 118.00,544.00 L 190.00,544.00 M 345.89,509.39 L 346.03,509.46 L 346.26,509.93 L 346.37,510.22 L 346.54,511.24 L 346.62,511.84 L 346.74,513.56 L 346.80,514.53 L 346.87,517.11 L 346.89,517.81 L 346.92,519.41 L 346.93,520.24 L 346.95,522.11 L 346.96,523.08 L 346.98,525.23 L 346.98,526.34 L 346.99,528.80 L 346.99,530.06 L 347.00,532.84 L 347.00,537.39 L 347.00,566.00 L 274.00,566.00 L 274.00,510.00 L 311.32,510.00 L 315.96,509.99 L 318.25,509.98 L 322.60,509.95 L 324.73,509.94 L 328.68,509.90 L 330.59,509.87 L 334.04,509.82 L 335.70,509.79 L 338.55,509.73 L 339.89,509.70 L 342.05,509.63 L 343.03,509.59 L 344.39,509.51 L 345.42,509.39 L 345.60,509.32 M 570.04,450.66 L 571.11,450.66 L 572.96,450.68 L 573.84,450.69 L 575.35,450.73 L 576.07,450.75 L 577.29,450.80 L 578.43,450.85 L 579.96,451.02 L 580.61,451.11 L 581.37,451.36 L 581.68,451.50 L 581.93,451.85 L 582.03,452.50 L 582.03,452.56 L 582.03,452.98 L 582.03,453.24 L 582.04,454.05 L 582.04,454.50 L 582.04,455.67 L 582.04,456.30 L 582.04,457.80 L 582.04,458.59 L 582.04,460.40 L 582.04,461.34 L 582.04,463.44 L 582.04,465.60 L 582.04,470.65 L 582.04,473.28 L 582.04,479.12 L 582.04,482.11 L 582.04,488.53 L 582.04,489.30 L 582.01,484.95 L 581.98,482.18 L 581.90,476.76 L 581.85,474.29 L 581.75,469.55 L 581.69,467.49 L 581.56,463.59 L 581.48,462.03 L 581.40,460.53 L 581.36,459.89 L 581.28,458.68 L 581.23,458.19 L 581.14,457.29 L 581.09,456.97 L 580.99,456.40 L 580.94,456.25 L 579.80,453.00 L 512.95,453.00 L 512.01,455.48 L 511.93,455.97 L 511.89,456.58 L 511.86,457.02 L 511.82,457.98 L 511.80,458.58 L 511.75,459.87 L 511.74,460.62 L 511.70,462.21 L 511.68,463.11 L 511.64,464.97 L 511.63,466.00 L 511.57,470.35 L 511.54,472.85 L 511.49,478.04 L 511.47,480.89 L 511.44,486.72 L 511.42,489.82 L 511.40,496.10 L 511.40,499.34 L 511.39,505.88 L 511.39,509.18 L 511.40,522.38 L 511.43,528.60 L 511.46,534.72 L 511.48,537.59 L 511.52,543.19 L 511.55,545.73 L 511.60,550.60 L 511.64,552.70 L 511.67,554.74 L 511.69,555.67 L 511.73,557.45 L 511.74,558.23 L 511.78,559.73 L 511.81,560.36 L 511.85,561.55 L 511.87,562.01 L 511.92,562.87 L 511.94,563.16 L 511.99,563.66 L 512.02,563.76 L 512.19,564.00 L 512.46,564.10 L 513.14,564.29 L 513.71,564.37 L 514.99,564.51 L 515.89,564.57 L 517.87,564.67 L 519.16,564.71 L 521.94,564.78 L 523.65,564.80 L 527.32,564.83 L 529.51,564.83 L 531.77,564.83 L 533.00,564.83 L 535.52,564.83 L 536.88,564.82 L 539.68,564.81 L 541.18,564.80 L 544.25,564.78 L 545.90,564.76 L 579.47,564.50 L 580.72,561.90 L 580.88,561.30 L 580.97,560.63 L 581.02,560.18 L 581.11,559.19 L 581.16,558.58 L 581.25,557.29 L 581.29,556.54 L 581.45,553.25 L 581.52,551.24 L 581.65,546.99 L 581.71,544.57 L 581.82,539.54 L 581.86,536.79 L 581.95,531.16 L 581.98,528.18 L 582.04,521.22 L 582.04,522.68 L 582.04,529.30 L 582.04,532.56 L 582.03,538.71 L 582.03,541.70 L 582.03,547.16 L 582.03,549.79 L 582.03,554.36 L 582.03,555.44 L 582.02,557.39 L 582.02,558.33 L 582.02,559.99 L 582.02,560.78 L 582.02,562.11 L 582.02,562.73 L 582.02,563.72 L 582.02,564.17 L 582.01,564.78 L 582.01,565.25 L 582.01,565.30 L 581.27,565.40 L 580.79,565.45 L 579.17,565.54 L 578.25,565.59 L 575.84,565.67 L 574.54,565.71 L 571.43,565.78 L 569.80,565.81 L 566.09,565.87 L 564.18,565.90 L 559.98,565.94 L 557.83,565.96 L 553.23,565.98 L 546.00,566.00 L 510.00,566.00 L 510.00,451.05 L 546.00,450.77 L 548.21,450.76 L 552.24,450.73 L 554.19,450.71 L 557.72,450.69 L 559.42,450.68 L 562.47,450.66 L 563.95,450.66 L 566.57,450.65 L 567.83,450.65 M 199.00,529.00 L 199.00,545.42 L 199.05,551.92 L 199.12,555.85 L 199.18,557.48 L 199.24,559.05 L 199.27,559.72 L 199.34,561.00 L 199.37,561.51 L 199.45,562.44 L 199.49,562.77 L 199.57,563.31 L 199.61,563.42 L 199.79,563.75 L 200.01,563.89 L 200.55,564.15 L 201.00,564.26 L 202.06,564.45 L 202.84,564.53 L 204.60,564.68 L 205.79,564.73 L 208.42,564.83 L 210.12,564.87 L 211.89,564.90 L 212.88,564.91 L 214.94,564.94 L 216.08,564.95 L 218.45,564.97 L 219.76,564.97 L 222.46,564.99 L 223.94,564.99 L 227.00,565.00 L 228.67,565.00 L 232.10,565.00 L 267.73,565.00 L 267.49,562.75 L 267.44,561.98 L 267.41,561.17 L 267.39,560.63 L 267.35,559.48 L 267.34,558.79 L 267.30,557.35 L 267.29,556.53 L 267.22,553.04 L 267.20,551.04 L 267.15,546.92 L 267.13,544.75 L 267.00,529.00 M 276.50,511.50 L 276.09,565.00 L 342.66,565.00 L 343.86,562.75 L 344.15,561.86 L 344.32,560.96 L 344.39,560.36 L 344.52,559.04 L 344.58,558.20 L 344.67,556.42 L 344.71,555.35 L 344.78,553.08 L 344.80,551.75 L 344.83,548.96 L 344.84,547.36 L 344.84,544.01 L 344.83,542.12 L 344.80,538.19 L 344.78,536.00 L 344.50,511.50 Z" fill="rgba(175,130,96,1)"/>
<path d="M 354.67,565.33 L 354.62,565.29 L 354.53,564.46 L 354.49,563.93 L 354.41,562.22 L 354.37,561.26 L 354.29,558.75 L 354.26,557.41 L 354.20,554.22 L 354.17,552.55 L 354.11,548.77 L 354.09,546.82 L 354.05,542.56 L 354.04,540.38 L 354.01,535.73 L 354.00,528.44 L 354.00,526.56 L 354.00,523.09 L 354.00,521.39 L 354.01,518.26 L 354.02,516.74 L 354.03,513.94 L 354.04,512.58 L 354.06,510.10 L 354.07,508.90 L 354.09,506.71 L 354.10,505.65 L 354.14,503.74 L 354.17,501.90 L 354.26,498.97 L 354.31,497.63 L 354.44,495.59 L 354.51,494.68 L 354.69,493.39 L 354.78,492.83 L 355.00,492.16 L 355.39,491.68 L 355.49,491.64 L 356.35,491.57 L 356.89,491.54 L 358.58,491.47 L 359.52,491.43 L 361.92,491.36 L 363.21,491.33 L 366.24,491.27 L 367.82,491.24 L 371.38,491.19 L 373.22,491.17 L 377.21,491.12 L 379.26,491.10 L 383.59,491.07 L 390.36,491.04 L 423.95,490.93 L 424.52,493.24 L 424.56,493.39 L 424.63,494.40 L 424.67,495.01 L 424.72,496.83 L 424.75,497.84 L 424.79,500.39 L 424.81,501.75 L 424.84,504.93 L 424.86,506.59 L 424.87,510.29 L 424.87,512.19 L 424.87,516.32 L 424.87,518.43 L 424.85,522.88 L 424.80,529.81 L 424.78,531.63 L 424.75,535.00 L 424.74,536.64 L 424.70,539.66 L 424.68,541.12 L 424.65,543.81 L 424.63,545.12 L 424.59,547.49 L 424.57,548.64 L 424.53,550.73 L 424.50,551.74 L 424.45,553.55 L 424.40,555.29 L 424.28,558.04 L 424.22,559.31 L 424.06,561.21 L 423.98,562.07 L 423.78,563.28 L 423.68,563.81 L 423.43,564.47 L 423.00,565.02 L 422.89,565.09 L 421.97,565.21 L 421.39,565.27 L 419.62,565.39 L 418.64,565.44 L 416.16,565.54 L 414.83,565.59 L 411.76,565.67 L 410.16,565.71 L 406.61,565.78 L 404.80,565.81 L 400.91,565.87 L 396.97,565.92 L 388.59,565.97 L 384.41,565.99 L 376.31,565.98 L 374.34,565.97 L 370.64,565.94 L 368.84,565.93 L 365.55,565.88 L 363.97,565.85 L 361.22,565.79 L 359.92,565.75 L 357.84,565.67 L 356.89,565.62 L 355.59,565.52 L 355.05,565.46 M 431.58,560.91 L 431.53,560.55 L 431.45,559.26 L 431.41,558.53 L 431.34,556.57 L 431.30,555.51 L 431.24,552.96 L 431.21,551.62 L 431.17,548.55 L 431.15,546.97 L 431.12,543.48 L 431.10,541.69 L 431.08,537.85 L 431.07,533.95 L 431.07,525.45 L 431.08,521.15 L 431.14,512.35 L 431.17,507.98 L 431.27,499.54 L 431.30,497.49 L 431.37,493.55 L 431.40,491.63 L 431.48,488.01 L 431.52,486.25 L 431.61,483.03 L 431.75,478.75 L 432.30,465.00 L 468.18,465.00 L 504.07,465.00 L 503.79,514.54 L 503.77,517.21 L 503.74,522.14 L 503.72,524.54 L 503.69,528.94 L 503.67,531.08 L 503.64,534.99 L 503.62,536.89 L 503.58,540.34 L 503.57,542.01 L 503.52,545.02 L 503.50,546.47 L 503.45,549.07 L 503.43,550.33 L 503.38,552.55 L 503.35,553.62 L 503.29,555.50 L 503.25,556.39 L 503.18,557.95 L 503.15,558.69 L 503.07,559.96 L 502.99,561.15 L 502.79,562.80 L 502.69,563.51 L 502.44,564.37 L 502.00,565.02 L 501.89,565.09 L 501.03,565.22 L 500.50,565.28 L 498.84,565.40 L 497.93,565.46 L 495.55,565.56 L 494.28,565.62 L 491.27,565.71 L 489.68,565.75 L 486.10,565.82 L 484.24,565.85 L 480.15,565.91 L 478.05,565.93 L 473.54,565.96 L 466.38,565.98 L 432.26,566.00 L 431.58,560.91 M 119.72,562.10 L 119.42,561.59 L 118.93,560.34 L 118.71,559.69 L 118.38,558.23 L 118.08,556.74 L 117.94,553.58 L 117.94,552.81 L 118.05,551.37 L 118.13,550.67 L 118.40,549.45 L 118.55,548.88 L 118.96,547.99 L 119.75,547.15 L 119.88,547.08 L 120.80,546.96 L 121.37,546.89 L 123.08,546.78 L 124.02,546.72 L 126.41,546.61 L 127.67,546.56 L 130.61,546.47 L 132.15,546.42 L 135.53,546.34 L 137.27,546.30 L 140.99,546.23 L 144.77,546.16 L 152.83,546.08 L 156.87,546.04 L 164.77,546.03 L 166.69,546.03 L 170.35,546.04 L 172.13,546.05 L 175.43,546.08 L 177.03,546.10 L 179.85,546.16 L 181.20,546.19 L 183.44,546.26 L 184.48,546.30 L 186.03,546.40 L 187.43,546.57 L 188.10,546.74 L 188.97,547.07 L 189.34,547.27 L 189.73,547.93 L 189.87,548.33 L 189.89,549.69 L 189.88,550.08 L 189.82,551.07 L 189.67,552.88 L 189.53,554.42 L 189.11,557.80 L 189.00,558.61 L 188.78,560.04 L 188.47,561.75 L 187.77,565.00 L 154.60,565.00 L 121.43,565.00 L 119.72,562.10 M 199.61,563.42 L 199.57,563.31 L 199.49,562.77 L 199.45,562.44 L 199.37,561.51 L 199.34,561.00 L 199.27,559.72 L 199.24,559.05 L 199.18,557.48 L 199.12,555.85 L 199.05,551.92 L 199.00,545.42 L 199.00,529.00 L 233.00,529.00 L 267.00,529.00 L 267.13,544.75 L 267.15,546.92 L 267.20,551.04 L 267.22,553.04 L 267.29,556.53 L 267.30,557.35 L 267.34,558.79 L 267.35,559.48 L 267.39,560.63 L 267.41,561.17 L 267.44,561.98 L 267.49,562.75 L 267.73,565.00 L 233.97,565.00 L 232.10,565.00 L 228.67,565.00 L 227.00,565.00 L 223.94,564.99 L 222.46,564.99 L 219.76,564.97 L 218.45,564.97 L 216.08,564.95 L 214.94,564.94 L 212.88,564.91 L 211.89,564.90 L 210.12,564.87 L 208.42,564.83 L 205.79,564.73 L 204.60,564.68 L 202.84,564.53 L 202.06,564.45 L 201.00,564.26 L 200.55,564.15 L 200.01,563.89 L 199.79,563.75 M 276.30,538.25 L 276.50,511.50 L 310.50,511.50 L 344.50,511.50 L 344.78,536.00 L 344.80,538.19 L 344.83,542.12 L 344.84,544.01 L 344.84,547.36 L 344.83,548.96 L 344.80,551.75 L 344.78,553.08 L 344.71,555.35 L 344.67,556.42 L 344.58,558.20 L 344.52,559.04 L 344.39,560.36 L 344.32,560.96 L 344.15,561.86 L 343.86,562.75 L 342.66,565.00 L 309.38,565.00 L 276.09,565.00 L 276.30,538.25 M 512.02,563.76 L 511.99,563.66 L 511.94,563.16 L 511.92,562.87 L 511.87,562.01 L 511.85,561.55 L 511.81,560.36 L 511.78,559.73 L 511.74,558.23 L 511.73,557.45 L 511.69,555.67 L 511.67,554.74 L 511.64,552.70 L 511.60,550.60 L 511.55,545.73 L 511.52,543.19 L 511.48,537.59 L 511.46,534.72 L 511.43,528.60 L 511.40,522.38 L 511.39,509.18 L 511.39,505.88 L 511.40,499.34 L 511.40,496.10 L 511.42,489.82 L 511.44,486.72 L 511.47,480.89 L 511.49,478.04 L 511.54,472.85 L 511.57,470.35 L 511.63,466.00 L 511.64,464.97 L 511.68,463.11 L 511.70,462.21 L 511.74,460.62 L 511.75,459.87 L 511.80,458.58 L 511.82,457.98 L 511.86,457.02 L 511.89,456.58 L 511.93,455.97 L 512.01,455.48 L 512.95,453.00 L 546.38,453.00 L 579.80,453.00 L 580.94,456.25 L 580.99,456.40 L 581.09,456.97 L 581.14,457.29 L 581.23,458.19 L 581.28,458.68 L 581.36,459.89 L 581.40,460.53 L 581.48,462.03 L 581.56,463.59 L 581.69,467.49 L 581.75,469.55 L 581.85,474.29 L 581.90,476.76 L 581.98,482.18 L 582.01,484.95 L 582.06,490.86 L 582.10,496.86 L 582.10,509.55 L 582.08,515.89 L 581.98,528.18 L 581.95,531.16 L 581.86,536.79 L 581.82,539.54 L 581.71,544.57 L 581.65,546.99 L 581.52,551.24 L 581.45,553.25 L 581.29,556.54 L 581.25,557.29 L 581.16,558.58 L 581.11,559.19 L 581.02,560.18 L 580.97,560.63 L 580.88,561.30 L 580.72,561.90 L 579.47,564.50 L 545.90,564.76 L 544.25,564.78 L 541.18,564.80 L 539.68,564.81 L 536.88,564.82 L 535.52,564.83 L 533.00,564.83 L 531.77,564.83 L 529.51,564.83 L 527.32,564.83 L 523.65,564.80 L 521.94,564.78 L 519.16,564.71 L 517.87,564.67 L 515.89,564.57 L 514.99,564.51 L 513.71,564.37 L 513.14,564.29 L 512.46,564.10 L 512.19,564.00 Z" fill="rgba(200,127,78,1)"/>
</g>
</svg>